# xmcd CD database file
#
# Track frame offsets:
#	150
#	22487
#	47632
#	72190
#	89860
#	106375
#	121365
#	154562
#	171590
#	194630
#	203125
#
# Disc length: 2941 seconds
#
# Revision: 0
# Processed by: cddbd v1.5.1PL0 Copyright (c) Steve Scherf et al.
# Submitted via: CDex 1.50
#
DISCID=a70b7b0b
DTITLE=Umo, Cond. Heikki Sarmanto - Kalevala Fantasy
DYEAR=1987
DGENRE=Jazz
TTITLE0=Dance Of Temptations
TTITLE1=The Fairiest Of All
TTITLE2=The Promise Broken
TTITLE3=Leaving For War
TTITLE4=In The Northland
TTITLE5=The Three Tasks
TTITLE6=Maiden Of The River
TTITLE7=The Death Of Lemminkäinen
TTITLE8=Mother Searching
TTITLE9=Goddess Of Light
TTITLE10=Return To Life
EXTD=YEAR: 1987
EXTT0=
EXTT1=
EXTT2=
EXTT3=
EXTT4=
EXTT5=
EXTT6=
EXTT7=
EXTT8=
EXTT9=
EXTT10=
PLAYORDER=
